<?xml version="1.0" encoding="utf-8"?><svg class="ldi-lpzc7a" width="100%" height="100%" xmlns="http://www.w3.org/2000/svg" xmlns:xlink="http://www.w3.org/1999/xlink" viewBox="0 0 100 100" preserveAspectRatio="xMidYMid" style="width:200px;webkit-user-select:none;webkit-transform-origin:100px 100px;webkit-perspective-origin:100px 100px;webkit-logical-width:200px;webkit-logical-height:200px;user-select:none;transform-origin:100px 100px;stroke-width:1px;r:0px;pointer-events:all;perspective-origin:100px 100px;overflow-y:hidden;overflow-x:hidden;overflow:hidden;inline-size:200px;height:200px;display:block;d:none;block-size:200px;background:rgba(0, 0, 0, 0) none repeat scroll 0% 0% / auto padding-box border-box" ><svg version="1.1" id="Layer_1" xmlns="http://www.w3.org/2000/svg" xmlns:xlink="http://www.w3.org/1999/xlink" x="0px" y="0px" viewBox="0 0 100 100" xml:space="preserve" class="" style="x:0px;webkit-user-select:none;webkit-transform-origin:50px 50px;webkit-perspective-origin:0px 0px;user-select:none;transform-origin:50px 50px;transform:none;stroke-width:1px;r:0px;pointer-events:all;perspective-origin:0px 0px;overflow-y:hidden;overflow-x:hidden;overflow:hidden;display:block" ><g class="" style="x:0px;webkit-user-select:none;webkit-transform-origin:50px 50px;webkit-perspective-origin:0px 0px;user-select:none;transform-origin:50px 50px;transform:none;stroke-width:1px;r:0px;pointer-events:all;perspective-origin:0px 0px" ><g class="" style="x:0px;webkit-user-select:none;webkit-transform-origin:50px 50px;webkit-transform:matrix(0.6, 0, 0, 0.6, 0, 0);webkit-perspective-origin:0px 0px;user-select:none;transform-origin:50px 50px;transform:matrix(0.6, 0, 0, 0.6, 0, 0);stroke-width:1px;r:0px;pointer-events:all;perspective-origin:0px 0px" ><g class="" style="x:0px;webkit-user-select:none;webkit-transform-origin:50px 50px;webkit-perspective-origin:0px 0px;user-select:none;transform-origin:50px 50px;transform:none;stroke-width:1px;r:0px;pointer-events:all;perspective-origin:0px 0px" ><g class="" style="webkit-user-select:none;webkit-perspective-origin:0px 0px;user-select:none;stroke-width:1px;pointer-events:all;perspective-origin:0px 0px" ><style type="text/css" class="ld " style="y:0px;x:0px;webkit-user-select:none;webkit-transform-origin:50px 50px;webkit-animation-duration:1s;webkit-animation-delay:-1s;webkit-animation:none 1s ease -1s 1 normal none running;user-select:none;transform-origin:50px 50px;transform:none;stroke-width:1px;r:0px;pointer-events:all;direction:ltr;d:none" >.st0{fill:#F4E6C8;} .st1{fill:#333333;} .st2{fill:#E0E0E0;} .st3{fill:#E15C64;} .st4{fill:#C33837;} .st5{fill:#D65A62;} .st6{fill:none;} .st7{fill:#F7B26A;} .st8{fill:#F47E5F;} .st9{opacity:0.2;fill:#353035;} .st10{fill:#666766;} .st11{fill:#A0C8D7;} .st12{fill:#77A4BD;} .st13{fill:#ACBD81;} .st14{fill:#FFFFFF;} .st15{fill:#849B87;} .st16{fill:none;stroke:#E0E0E0;stroke-width:4;stroke-miterlimit:10;} .st17{fill:none;stroke:#333333;stroke-width:4;stroke-miterlimit:10;} .st18{fill:#FFFFFF;stroke:#333333;stroke-width:4;stroke-miterlimit:10;} .st19{fill:none;stroke:#000000;stroke-width:4;stroke-miterlimit:10;} .st20{fill:#FFFFFF;stroke:#000000;stroke-width:4;stroke-miterlimit:10;} .st21{fill:#010101;} .st22{fill:#A5A6A6;} .st23{fill:#666666;} .st24{fill:#F3E4C7;} .st25{fill:none;stroke:#FFFFFF;stroke-linecap:round;stroke-miterlimit:10;} .st26{fill:#353035;} .st27{fill:#B93A38;} .st28{fill:#EA7C60;} .st29{fill:#E0E0E0;stroke:#F7B26A;stroke-width:8;stroke-miterlimit:10;} .st30{fill:none;stroke:#F7B26A;stroke-width:10;stroke-linecap:round;stroke-miterlimit:10;} .st31{fill:none;stroke:#010101;stroke-width:8;stroke-miterlimit:10;} .st32{fill:#F0AF6B;stroke:#010101;stroke-width:8;stroke-miterlimit:10;} .st33{fill:#829985;} .st34{fill:#A8B980;} .st35{fill:#F0AF6B;} .st36{fill:#4A3827;} .st37{fill:#332518;} .st38{fill:#E6E6E6;}</style>
<g class="ld " style="y:0px;x:0px;webkit-user-select:none;webkit-transform-origin:50px 50px;webkit-perspective-origin:0px 0px;webkit-animation-duration:1s;webkit-animation-delay:-0.916667s;webkit-animation:none 1s ease -0.916667s 1 normal none running;user-select:none;transform-origin:50px 50px;transform:none;stroke-width:1px;r:0px;pointer-events:all;perspective-origin:0px 0px;direction:ltr;d:none" ><path d="M84.1,15.9C76.1,8,63.2,8,55.3,15.9L41.7,29.6c-1.5,1.5-2.6,3.1-3.6,4.8c0.9-0.2,1.9-0.4,2.8-0.6c1.9-0.2,3.7-0.3,5.6-0.1 l13.3-13.3c5.4-5.4,14.3-5.4,19.7,0c5.4,5.4,5.4,14.3,0,19.7L66.2,53.4l-0.3,0.3c-0.5,0.5-1.1,1-1.7,1.4c-0.7,0.5-1.4,0.9-2.1,1.3 c-1.4,0.7-2.9,1.1-4.4,1.3c-0.7,0.1-1.4,0.1-2.2,0.1c-0.7,0-1.4-0.1-2.1-0.2c-2.6-0.5-5.2-1.8-7.2-3.8s-3.3-4.6-3.8-7.2 c-0.1-0.7-0.2-1.4-0.2-2.1c-1.5,0.2-2.9,0.7-4.2,1.5c-0.7,0.4-1.3,0.9-2,1.4c0.1,0.8,0.3,1.6,0.6,2.4c0.9,3.1,2.6,6.1,5.1,8.5 s5.4,4.2,8.5,5.1c0.8,0.2,1.6,0.4,2.4,0.6c0.8,0.1,1.7,0.2,2.5,0.3c1.7,0.1,3.5-0.1,5.2-0.4c0.9-0.2,1.8-0.5,2.6-0.8 c0.9-0.3,1.8-0.7,2.6-1.1c1.7-0.9,3.4-2.1,4.8-3.6l13.6-13.6C92,36.8,92,23.9,84.1,15.9z" fill="rgb(0, 0, 0)" class="" style="webkit-user-select:none;webkit-perspective-origin:0px 0px;user-select:none;r:0px;pointer-events:all;perspective-origin:0px 0px;fill:rgb(0, 0, 0);d:path('M 84.1 15.9 C 76.1 8 63.2 8 55.3 15.9 L 41.7 29.6 c -1.5 1.5 -2.6 3.1 -3.6 4.8 c 0.9 -0.2 1.9 -0.4 2.8 -0.6 c 1.9 -0.2 3.7 -0.3 5.6 -0.1 l 13.3 -13.3 c 5.4 -5.4 14.3 -5.4 19.7 0 c 5.4 5.4 5.4 14.3 0 19.7 L 66.2 53.4 l -0.3 0.3 c -0.5 0.5 -1.1 1 -1.7 1.4 c -0.7 0.5 -1.4 0.9 -2.1 1.3 c -1.4 0.7 -2.9 1.1 -4.4 1.3 c -0.7 0.1 -1.4 0.1 -2.2 0.1 c -0.7 0 -1.4 -0.1 -2.1 -0.2 c -2.6 -0.5 -5.2 -1.8 -7.2 -3.8 s -3.3 -4.6 -3.8 -7.2 c -0.1 -0.7 -0.2 -1.4 -0.2 -2.1 c -1.5 0.2 -2.9 0.7 -4.2 1.5 c -0.7 0.4 -1.3 0.9 -2 1.4 c 0.1 0.8 0.3 1.6 0.6 2.4 c 0.9 3.1 2.6 6.1 5.1 8.5 s 5.4 4.2 8.5 5.1 c 0.8 0.2 1.6 0.4 2.4 0.6 c 0.8 0.1 1.7 0.2 2.5 0.3 c 1.7 0.1 3.5 -0.1 5.2 -0.4 c 0.9 -0.2 1.8 -0.5 2.6 -0.8 c 0.9 -0.3 1.8 -0.7 2.6 -1.1 c 1.7 -0.9 3.4 -2.1 4.8 -3.6 l 13.6 -13.6 C 92 36.8 92 23.9 84.1 15.9 Z')" ></path></g>
<g class="ld " style="y:0px;x:0px;webkit-user-select:none;webkit-transform-origin:50px 50px;webkit-perspective-origin:0px 0px;webkit-animation-duration:1s;webkit-animation-delay:-0.833333s;webkit-animation:none 1s ease -0.833333s 1 normal none running;user-select:none;transform-origin:50px 50px;transform:none;stroke-width:1px;r:0px;pointer-events:all;perspective-origin:0px 0px;direction:ltr;d:none" ><path d="M61.9,65.6c-0.9,0.2-1.9,0.4-2.8,0.6c-1.9,0.2-3.7,0.3-5.6,0.1L40.2,79.5c-5.4,5.4-14.3,5.4-19.7,0 c-5.4-5.4-5.4-14.3,0-19.7l13.3-13.3l0.3-0.3c0.5-0.5,1.1-1,1.7-1.4c0.7-0.5,1.4-0.9,2.1-1.3c1.4-0.7,2.9-1.1,4.4-1.3 c0.7-0.1,1.4-0.1,2.2-0.1c0.7,0,1.4,0.1,2.1,0.2c2.6,0.5,5.2,1.8,7.2,3.8s3.3,4.6,3.8,7.2c0.1,0.7,0.2,1.4,0.2,2.1 c1.5-0.2,2.9-0.7,4.2-1.5c0.7-0.4,1.3-0.9,2-1.4c-0.1-0.8-0.3-1.6-0.6-2.4c-0.9-3.1-2.6-6.1-5.1-8.5s-5.4-4.2-8.5-5.1 c-0.8-0.2-1.6-0.4-2.4-0.6c-0.8-0.1-1.7-0.2-2.5-0.3c-1.7-0.1-3.5,0.1-5.2,0.4c-0.9,0.2-1.8,0.5-2.6,0.8c-0.9,0.3-1.8,0.7-2.6,1.1 c-1.7,0.9-3.4,2.1-4.8,3.6L15.9,55.3C8,63.2,8,76.1,15.9,84.1s20.8,7.9,28.8,0l13.6-13.6C59.8,69,61,67.4,61.9,65.6z" fill="rgb(0, 0, 0)" class="" style="webkit-user-select:none;webkit-perspective-origin:0px 0px;user-select:none;r:0px;pointer-events:all;perspective-origin:0px 0px;fill:rgb(0, 0, 0);d:path('M 61.9 65.6 c -0.9 0.2 -1.9 0.4 -2.8 0.6 c -1.9 0.2 -3.7 0.3 -5.6 0.1 L 40.2 79.5 c -5.4 5.4 -14.3 5.4 -19.7 0 c -5.4 -5.4 -5.4 -14.3 0 -19.7 l 13.3 -13.3 l 0.3 -0.3 c 0.5 -0.5 1.1 -1 1.7 -1.4 c 0.7 -0.5 1.4 -0.9 2.1 -1.3 c 1.4 -0.7 2.9 -1.1 4.4 -1.3 c 0.7 -0.1 1.4 -0.1 2.2 -0.1 c 0.7 0 1.4 0.1 2.1 0.2 c 2.6 0.5 5.2 1.8 7.2 3.8 s 3.3 4.6 3.8 7.2 c 0.1 0.7 0.2 1.4 0.2 2.1 c 1.5 -0.2 2.9 -0.7 4.2 -1.5 c 0.7 -0.4 1.3 -0.9 2 -1.4 c -0.1 -0.8 -0.3 -1.6 -0.6 -2.4 c -0.9 -3.1 -2.6 -6.1 -5.1 -8.5 s -5.4 -4.2 -8.5 -5.1 c -0.8 -0.2 -1.6 -0.4 -2.4 -0.6 c -0.8 -0.1 -1.7 -0.2 -2.5 -0.3 c -1.7 -0.1 -3.5 0.1 -5.2 0.4 c -0.9 0.2 -1.8 0.5 -2.6 0.8 c -0.9 0.3 -1.8 0.7 -2.6 1.1 c -1.7 0.9 -3.4 2.1 -4.8 3.6 L 15.9 55.3 C 8 63.2 8 76.1 15.9 84.1 s 20.8 7.9 28.8 0 l 13.6 -13.6 C 59.8 69 61 67.4 61.9 65.6 Z')" ></path></g>
<metadata xmlns:d="https://loading.io/stock/" class="ld " style="y:0px;x:0px;webkit-user-select:none;webkit-transform-origin:50px 50px;webkit-animation-duration:1s;webkit-animation-delay:-0.75s;webkit-animation:none 1s ease -0.75s 1 normal none running;user-select:none;transform-origin:50px 50px;transform:none;stroke-width:1px;r:0px;pointer-events:all;direction:ltr;d:none" ><d:name class="ld " style="y:0px;x:0px;webkit-user-select:none;webkit-transform-origin:50px 50px;webkit-animation-duration:1s;webkit-animation-delay:-0.666667s;webkit-animation:none 1s ease -0.666667s 1 normal none running;user-select:none;transform-origin:50px 50px;transform:none;stroke-width:1px;r:0px;pointer-events:all;direction:ltr;d:none" >link</d:name>


<d:tags class="ld " style="y:0px;x:0px;webkit-user-select:none;webkit-transform-origin:50px 50px;webkit-animation-duration:1s;webkit-animation-delay:-0.583333s;webkit-animation:none 1s ease -0.583333s 1 normal none running;user-select:none;transform-origin:50px 50px;transform:none;stroke-width:1px;r:0px;pointer-events:all;direction:ltr;d:none" >chain,lock,circle,ring,shackle,url,link,web application</d:tags>


<d:license class="ld " style="y:0px;x:0px;webkit-user-select:none;webkit-transform-origin:50px 50px;webkit-animation-duration:1s;webkit-animation-delay:-0.5s;webkit-animation:none 1s ease -0.5s 1 normal none running;user-select:none;transform-origin:50px 50px;transform:none;stroke-width:1px;r:0px;pointer-events:all;direction:ltr;d:none" >rf</d:license>


<d:slug class="ld " style="y:0px;x:0px;webkit-user-select:none;webkit-transform-origin:50px 50px;webkit-animation-duration:1s;webkit-animation-delay:-0.416667s;webkit-animation:none 1s ease -0.416667s 1 normal none running;user-select:none;transform-origin:50px 50px;transform:none;stroke-width:1px;r:0px;pointer-events:all;direction:ltr;d:none" >lpzc7a</d:slug></metadata></g></g></g></g>
<style type="text/css" class="ld " style="y:0px;x:0px;webkit-user-select:none;webkit-transform-origin:50px 50px;webkit-animation-duration:1s;webkit-animation-delay:-0.333333s;webkit-animation:none 1s ease -0.333333s 1 normal none running;user-select:none;transform-origin:50px 50px;transform:none;stroke-width:1px;r:0px;pointer-events:all;direction:ltr;d:none" >path,ellipse,circle,rect,polygon,polyline,line { stroke-width: 0; }@keyframes ld-fade {
  0% {
    opacity: 1;
  }
  100% {
    opacity: 0;
  }
}
@-webkit-keyframes ld-fade {
  0% {
    opacity: 1;
  }
  100% {
    opacity: 0;
  }
}
.ld.ld-fade {
  -webkit-animation: ld-fade 1s infinite linear;
  animation: ld-fade 1s infinite linear;
}</style></svg></svg>